<?xml version="1.0" standalone="no"?>
<!DOCTYPE svg PUBLIC "-//W3C//DTD SVG 20010904//EN"
 "http://www.w3.org/TR/2001/REC-SVG-20010904/DTD/svg10.dtd">
<svg version="1.0" xmlns="http://www.w3.org/2000/svg"
 width="107.000000pt" height="100.000000pt" viewBox="0 0 107.000000 100.000000"
 preserveAspectRatio="xMidYMid meet">

<g transform="translate(0.000000,100.000000) scale(0.100000,-0.100000)"
fill="#000000" stroke="none">
<path d="M332 743 c-24 -131 -43 -241 -42 -245 0 -4 12 -9 28 -11 15 -2 -8 -5
-50 -6 -76 -1 -78 -2 -78 -26 l0 -25 350 0 350 0 0 25 c0 14 -4 25 -9 25 -5 0
-14 13 -21 30 -18 43 4 90 42 90 31 0 33 7 16 45 -9 19 -8 31 2 49 15 29 7 46
-24 46 -31 0 -55 53 -38 81 7 10 12 23 12 29 0 14 -372 14 -386 0 -8 -8 -8 7
-1 45 7 34 7 59 1 64 -5 5 -32 12 -59 16 l-51 6 -42 -238z m144 204 c1 -1 -11
-67 -25 -147 -22 -121 -29 -145 -44 -144 -64 3 -67 4 -67 26 0 21 38 241 46
267 3 10 15 12 46 7 23 -4 43 -8 44 -9z m368 -114 c-9 -23 -9 -53 0 -75 8 -17
-4 -18 -162 -18 -142 0 -173 3 -186 16 -18 18 -20 47 -6 75 10 18 23 19 186
19 164 0 176 -1 168 -17z m-326 -101 c31 -3 31 -3 15 -28 -13 -20 -14 -32 -5
-60 9 -30 8 -34 -7 -34 -42 0 -71 -68 -47 -105 l16 -25 -40 0 c-22 0 -40 1
-40 3 0 2 11 66 25 143 14 76 25 144 25 149 0 6 6 -1 13 -15 9 -17 22 -26 45
-28z m392 -18 c0 -3 -5 -15 -11 -26 -8 -15 -8 -27 0 -44 l11 -24 -179 0 c-193
0 -191 0 -191 54 0 43 15 46 197 46 95 0 173 -3 173 -6z m-496 -84 c4 -5 -11
-4 -35 1 -24 6 -46 13 -49 15 -8 9 74 -8 84 -16z m-14 -20 c20 -6 21 -8 5 -8
-11 0 -33 4 -50 8 -27 7 -27 8 -5 8 14 0 36 -4 50 -8z m2 -29 c4 -3 4 -25 1
-48 l-6 -43 -41 6 c-22 4 -43 8 -45 10 -2 2 0 24 3 49 l7 46 37 -7 c20 -3 40
-9 44 -13z m448 4 c0 -2 -5 -16 -12 -30 -9 -19 -9 -28 0 -37 7 -7 12 -16 12
-20 0 -4 -78 -8 -173 -8 -185 0 -197 3 -197 50 0 47 12 50 197 50 95 0 173 -2
173 -5z m-148 -132 c-95 -2 -248 -2 -340 0 -92 1 -14 3 173 3 187 0 262 -2
167 -3z"/>
<path d="M592 793 c37 -2 100 -2 140 0 40 1 10 3 -67 3 -77 0 -110 -1 -73 -3z"/>
<path d="M595 670 c-4 -6 42 -10 129 -10 84 0 136 4 136 10 0 6 -50 10 -129
10 -76 0 -132 -4 -136 -10z"/>
<path d="M535 540 c-4 -6 42 -10 129 -10 84 0 136 4 136 10 0 6 -50 10 -129
10 -76 0 -132 -4 -136 -10z"/>
<path d="M66 602 c-3 -5 -6 -48 -7 -98 -2 -86 -1 -92 41 -182 l43 -93 91 -56
c50 -31 96 -63 103 -72 7 -9 13 -33 13 -53 l0 -38 85 0 85 0 0 68 c0 53 -5 79
-23 113 -33 62 -95 107 -159 115 -46 6 -60 14 -120 71 -37 34 -74 63 -82 63
-29 0 -27 -21 9 -70 20 -28 33 -50 28 -49 -12 1 -73 87 -73 104 0 7 5 17 11
20 11 7 3 102 -12 143 -9 22 -24 29 -33 14z"/>
<path d="M982 598 c-16 -21 -26 -136 -12 -153 16 -20 6 -43 -42 -95 -44 -49
-40 -39 11 27 32 42 34 63 5 63 -7 0 -46 -29 -85 -65 -48 -45 -79 -65 -96 -65
-56 0 -104 -24 -148 -72 -48 -54 -62 -98 -57 -179 l4 -49 79 0 79 0 0 33 c0
48 19 68 122 130 l93 55 43 95 c43 99 51 154 36 250 -7 39 -15 45 -32 25z"/>
</g>
</svg>
