<?xml version="1.0" encoding="UTF-8"?>
<svg xmlns="http://www.w3.org/2000/svg" xmlns:xlink="http://www.w3.org/1999/xlink" width="60px" height="56px" viewBox="0 0 60 56" version="1.1">
<g id="surface1">
<path style=" stroke:none;fill-rule:nonzero;fill:rgb(0%,0%,0%);fill-opacity:1;" d="M 18.582031 14.390625 C 17.238281 21.726562 16.175781 27.886719 16.230469 28.113281 C 16.230469 28.335938 16.902344 28.617188 17.796875 28.726562 C 18.636719 28.839844 17.351562 29.007812 15 29.0625 C 10.746094 29.121094 10.632812 29.175781 10.632812 30.519531 L 10.632812 31.921875 L 49.8125 31.921875 L 49.8125 30.519531 C 49.8125 29.734375 49.589844 29.121094 49.308594 29.121094 C 49.03125 29.121094 48.527344 28.390625 48.132812 27.441406 C 47.125 25.03125 48.359375 22.398438 50.484375 22.398438 C 52.21875 22.398438 52.332031 22.007812 51.378906 19.878906 C 50.875 18.816406 50.933594 18.144531 51.492188 17.136719 C 52.332031 15.511719 51.882812 14.558594 50.148438 14.558594 C 48.414062 14.558594 47.070312 11.59375 48.023438 10.023438 C 48.414062 9.464844 48.695312 8.734375 48.695312 8.398438 C 48.695312 7.617188 27.875 7.617188 27.089844 8.398438 C 26.640625 8.847656 26.640625 8.007812 27.035156 5.878906 C 27.425781 3.976562 27.425781 2.574219 27.089844 2.296875 C 26.808594 2.015625 25.296875 1.625 23.789062 1.398438 L 20.933594 1.0625 Z M 26.640625 2.96875 C 26.699219 3.023438 26.027344 6.71875 25.242188 11.199219 C 24.011719 17.976562 23.621094 19.320312 22.78125 19.265625 C 19.199219 19.097656 19.03125 19.039062 19.03125 17.808594 C 19.03125 16.632812 21.15625 4.3125 21.605469 2.855469 C 21.773438 2.296875 22.445312 2.183594 24.179688 2.464844 C 25.464844 2.6875 26.585938 2.910156 26.640625 2.96875 Z M 47.238281 9.351562 C 46.734375 10.640625 46.734375 12.320312 47.238281 13.550781 C 47.6875 14.503906 47.015625 14.558594 38.171875 14.558594 C 30.222656 14.558594 28.488281 14.390625 27.761719 13.664062 C 26.753906 12.65625 26.640625 11.03125 27.425781 9.464844 C 27.984375 8.457031 28.710938 8.398438 37.835938 8.398438 C 47.015625 8.398438 47.6875 8.457031 47.238281 9.351562 Z M 28.992188 15.007812 C 30.726562 15.175781 30.726562 15.175781 29.832031 16.574219 C 29.105469 17.695312 29.046875 18.367188 29.550781 19.9375 C 30.054688 21.617188 30 21.839844 29.160156 21.839844 C 26.808594 21.839844 25.1875 25.648438 26.53125 27.71875 L 27.425781 29.121094 L 25.1875 29.121094 C 23.957031 29.121094 22.949219 29.0625 22.949219 28.953125 C 22.949219 28.839844 23.5625 25.257812 24.347656 20.945312 C 25.128906 16.6875 25.746094 12.878906 25.746094 12.601562 C 25.746094 12.265625 26.082031 12.65625 26.472656 13.441406 C 26.976562 14.390625 27.707031 14.894531 28.992188 15.007812 Z M 50.933594 16.015625 C 50.933594 16.183594 50.652344 16.855469 50.316406 17.472656 C 49.871094 18.3125 49.871094 18.984375 50.316406 19.9375 L 50.933594 21.28125 L 40.914062 21.28125 C 30.113281 21.28125 30.222656 21.28125 30.222656 18.257812 C 30.222656 15.847656 31.0625 15.679688 41.25 15.679688 C 46.566406 15.679688 50.933594 15.847656 50.933594 16.015625 Z M 23.171875 20.71875 C 23.394531 21 22.554688 20.945312 21.210938 20.664062 C 19.871094 20.328125 18.636719 19.9375 18.46875 19.824219 C 18.023438 19.320312 22.613281 20.273438 23.171875 20.71875 Z M 22.386719 21.839844 C 23.507812 22.175781 23.5625 22.289062 22.667969 22.289062 C 22.050781 22.289062 20.820312 22.0625 19.871094 21.839844 C 18.359375 21.449219 18.359375 21.390625 19.589844 21.390625 C 20.375 21.390625 21.605469 21.617188 22.386719 21.839844 Z M 22.5 23.464844 C 22.722656 23.632812 22.722656 24.863281 22.554688 26.152344 L 22.21875 28.558594 L 19.925781 28.222656 C 18.695312 28 17.519531 27.777344 17.40625 27.664062 C 17.292969 27.550781 17.40625 26.320312 17.574219 24.921875 L 17.964844 22.34375 L 20.039062 22.734375 C 21.15625 22.902344 22.277344 23.238281 22.5 23.464844 Z M 47.574219 23.238281 C 47.574219 23.351562 47.292969 24.136719 46.902344 24.921875 C 46.398438 25.984375 46.398438 26.488281 46.902344 26.992188 C 47.292969 27.382812 47.574219 27.886719 47.574219 28.113281 C 47.574219 28.335938 43.207031 28.558594 37.890625 28.558594 C 27.539062 28.558594 26.867188 28.390625 26.867188 25.761719 C 26.867188 23.128906 27.539062 22.960938 37.890625 22.960938 C 43.207031 22.960938 47.574219 23.070312 47.574219 23.238281 Z M 39.292969 30.632812 C 33.972656 30.742188 25.410156 30.742188 20.261719 30.632812 C 15.113281 30.574219 19.476562 30.464844 29.945312 30.464844 C 40.410156 30.464844 44.609375 30.574219 39.292969 30.632812 Z M 39.292969 30.632812 "/>
<path style=" stroke:none;fill-rule:nonzero;fill:rgb(0%,0%,0%);fill-opacity:1;" d="M 33.132812 11.59375 C 35.207031 11.703125 38.730469 11.703125 40.96875 11.59375 C 43.207031 11.535156 41.53125 11.425781 37.21875 11.425781 C 32.910156 11.425781 31.0625 11.480469 33.132812 11.59375 Z M 33.132812 11.59375 "/>
<path style=" stroke:none;fill-rule:nonzero;fill:rgb(0%,0%,0%);fill-opacity:1;" d="M 33.300781 18.480469 C 33.078125 18.816406 35.652344 19.039062 40.523438 19.039062 C 45.222656 19.039062 48.132812 18.816406 48.132812 18.480469 C 48.132812 18.144531 45.335938 17.921875 40.914062 17.921875 C 36.660156 17.921875 33.527344 18.144531 33.300781 18.480469 Z M 33.300781 18.480469 "/>
<path style=" stroke:none;fill-rule:nonzero;fill:rgb(0%,0%,0%);fill-opacity:1;" d="M 29.945312 25.761719 C 29.71875 26.097656 32.292969 26.320312 37.164062 26.320312 C 41.867188 26.320312 44.777344 26.097656 44.777344 25.761719 C 44.777344 25.425781 41.976562 25.199219 37.554688 25.199219 C 33.300781 25.199219 30.167969 25.425781 29.945312 25.761719 Z M 29.945312 25.761719 "/>
<path style=" stroke:none;fill-rule:nonzero;fill:rgb(0%,0%,0%);fill-opacity:1;" d="M 3.695312 22.289062 C 3.527344 22.566406 3.359375 24.976562 3.300781 27.777344 C 3.191406 32.59375 3.246094 32.929688 5.597656 37.96875 L 8.003906 43.175781 L 13.097656 46.3125 C 15.894531 48.046875 18.46875 49.839844 18.863281 50.34375 C 19.253906 50.847656 19.589844 52.191406 19.589844 53.3125 L 19.589844 55.441406 L 29.105469 55.441406 L 29.105469 51.632812 C 29.105469 48.664062 28.824219 47.207031 27.816406 45.304688 C 25.96875 41.832031 22.5 39.3125 18.917969 38.863281 C 16.34375 38.527344 15.558594 38.078125 12.203125 34.886719 C 10.128906 32.984375 8.058594 31.359375 7.613281 31.359375 C 5.988281 31.359375 6.101562 32.535156 8.117188 35.28125 C 9.234375 36.847656 9.960938 38.078125 9.683594 38.023438 C 9.011719 37.96875 5.597656 33.152344 5.597656 32.199219 C 5.597656 31.808594 5.875 31.246094 6.210938 31.078125 C 6.828125 30.6875 6.378906 25.367188 5.542969 23.070312 C 5.039062 21.839844 4.199219 21.449219 3.695312 22.289062 Z M 3.695312 22.289062 "/>
<path style=" stroke:none;fill-rule:nonzero;fill:rgb(0%,0%,0%);fill-opacity:1;" d="M 54.960938 22.511719 C 54.066406 23.6875 53.507812 30.128906 54.292969 31.078125 C 55.1875 32.199219 54.625 33.488281 51.941406 36.398438 C 49.476562 39.144531 49.703125 38.585938 52.554688 34.886719 C 54.347656 32.535156 54.457031 31.359375 52.835938 31.359375 C 52.445312 31.359375 50.261719 32.984375 48.078125 35 C 45.390625 37.519531 43.65625 38.640625 42.707031 38.640625 C 39.570312 38.640625 36.882812 39.984375 34.421875 42.671875 C 31.734375 45.695312 30.953125 48.160156 31.230469 52.695312 L 31.457031 55.441406 L 40.296875 55.441406 L 40.296875 53.59375 C 40.296875 50.902344 41.363281 49.785156 47.125 46.3125 L 52.332031 43.230469 L 54.738281 37.910156 C 57.144531 32.367188 57.59375 29.289062 56.753906 23.910156 C 56.363281 21.726562 55.914062 21.390625 54.960938 22.511719 Z M 54.960938 22.511719 "/>
</g>
</svg>
